<svg xmlns="http://www.w3.org/2000/svg" width="84" height="74.792" viewBox="0 0 84 74.792">
  <g id="logosite" transform="translate(-40.6 -43.2)">
    <g id="Groupe_1" data-name="Groupe 1" transform="translate(40.6 43.2)">
      <path id="Tracé_3" data-name="Tracé 3" d="M462.753,56.4h0c-.065.2-.147.457-.229.669v.016c-.033.082-.049.163-.082.229l-.343.947h1.306l-.343-.947C462.916,56.955,462.769,56.4,462.753,56.4Z" transform="translate(-393.284 -54.245)" fill="none"/>
      <path id="Tracé_4" data-name="Tracé 4" d="M68,55.035h.163a2.159,2.159,0,0,0,.392-.735A1.751,1.751,0,0,1,68,55.035Z" transform="translate(-63.527 -52.488)"/>
      <path id="Tracé_5" data-name="Tracé 5" d="M71.716,53.4a.057.057,0,0,1-.016.033l.1-.033Z" transform="translate(-66.622 -51.735)"/>
      <path id="Tracé_6" data-name="Tracé 6" d="M69.686,43.8a.689.689,0,0,0-.686.588.707.707,0,0,1,.6-.343.717.717,0,0,1,.686.784,1.219,1.219,0,0,1-.049.327,1.519,1.519,0,0,0,.131-.571A.717.717,0,0,0,69.686,43.8Z" transform="translate(-64.363 -43.702)"/>
      <path id="Tracé_7" data-name="Tracé 7" d="M411.108,45.678a8.575,8.575,0,0,0-.522.9h-.016c-.016,0-.082-.163-.522-.9L408.888,43.8H407.5v.245h1.306l1.159,1.861a8.556,8.556,0,0,1,.522.9h.016c.016,0,.082-.163.522-.9l1.159-1.861h1.388v5.927h.082V43.8h-1.388Z" transform="translate(-347.598 -43.702)"/>
      <path id="Tracé_8" data-name="Tracé 8" d="M415.587,60.5c-.016,0,.049.718.049,2.188v1.257h.082v-1.5c0-.849-.016-1.437-.033-1.8-.049-.082-.082-.147-.1-.147Z" transform="translate(-354.362 -57.676)"/>
      <path id="Tracé_9" data-name="Tracé 9" d="M535.9,54.812h2.351v1.061h.082V54.567h-2.351V53.8H535.9Z" transform="translate(-455.035 -52.069)"/>
      <path id="Tracé_10" data-name="Tracé 10" d="M539.035,68.833h-3.053V68H535.9v1.094h3.053V70.22h.082Z" transform="translate(-455.035 -63.951)"/>
      <path id="Tracé_11" data-name="Tracé 11" d="M531.708,45.188h.082V43.8H527.3v.245h4.408Z" transform="translate(-447.839 -43.702)"/>
      <path id="Tracé_12" data-name="Tracé 12" d="M451.069,43.8h-1.4L447.2,49.971h.016l2.367-5.927h1.4l2.367,5.927h.18Z" transform="translate(-380.816 -43.702)"/>
      <path id="Tracé_13" data-name="Tracé 13" d="M461.5,67.961h1.486L462.9,67.7H461.6Z" transform="translate(-392.781 -63.7)"/>
      <path id="Tracé_14" data-name="Tracé 14" d="M464.929,56.4h0c-.016,0-.114.359-.229.669v-.016C464.782,56.857,464.863,56.58,464.929,56.4Z" transform="translate(-395.459 -54.245)"/>
      <path id="Tracé_15" data-name="Tracé 15" d="M392.2,44.045h1.388v5.927h.1V43.8H392.2Z" transform="translate(-334.796 -43.702)"/>
      <path id="Tracé_16" data-name="Tracé 16" d="M504,60.461h2.792v3.233h.082V60.2H504Z" transform="translate(-428.343 -57.424)"/>
      <path id="Tracé_17" data-name="Tracé 17" d="M494.563,61.863a1.559,1.559,0,0,0,1.6-.963v-.016h-.033a1.61,1.61,0,0,1-1.486.735,1.667,1.667,0,0,1-1.747-1.763,2.871,2.871,0,0,1,.065-.555,2.138,2.138,0,0,0-.163.816A1.675,1.675,0,0,0,494.563,61.863Z" transform="translate(-418.971 -56.671)"/>
      <path id="Tracé_18" data-name="Tracé 18" d="M487.871,43.429a3.181,3.181,0,0,1,2.694,1.453l.2-.049a3.215,3.215,0,0,0-5.861.6A3.11,3.11,0,0,1,487.871,43.429Z" transform="translate(-412.361 -43.2)"/>
      <path id="Tracé_19" data-name="Tracé 19" d="M47.086,44.5H45.6v.245h1.388v4.784H49.91v1.143h.082V49.284H47.086Z" transform="translate(-44.784 -44.288)"/>
      <path id="Tracé_20" data-name="Tracé 20" d="M71.416,53.7a.318.318,0,0,1-.016.114c.016-.033.033-.082.049-.114Z" transform="translate(-66.371 -51.986)" fill="#ff0"/>
      <path id="Tracé_21" data-name="Tracé 21" d="M68.265,45.3a.692.692,0,0,0-.6.343.6.6,0,0,0-.1.343.611.611,0,0,0,.506.62h.049l.082.016-.1.033c-.016.033-.033.082-.049.114a2.159,2.159,0,0,1-.392.735,1.2,1.2,0,0,1-.261.245h.539a2.756,2.756,0,0,0,.963-1.355,1.131,1.131,0,0,0,.049-.327A.712.712,0,0,0,68.265,45.3Z" transform="translate(-63.024 -44.957)" fill="#ff0"/>
      <path id="Tracé_22" data-name="Tracé 22" d="M411.767,45.3l-1.159,1.861a8.573,8.573,0,0,0-.522.9h-.016c-.016,0-.082-.163-.522-.9L408.388,45.3H407v6.171h1.453v-1.5c0-1.469-.049-2.188-.049-2.188h.016a.928.928,0,0,0,.1.147c.147.245.425.718.457.784l.718,1.241h.767l.718-1.241c.049-.082.539-.931.555-.931h.016c.016,0-.049.718-.049,2.188v1.5h1.453V45.3Z" transform="translate(-347.179 -44.957)" fill="#ff0"/>
      <path id="Tracé_23" data-name="Tracé 23" d="M528.286,50.1V49.006h2.351V47.7h-2.351V46.688h3V45.3H526.8v6.171h4.539V50.1Z" transform="translate(-447.42 -44.957)" fill="#ff0"/>
      <path id="Tracé_24" data-name="Tracé 24" d="M462.441,60.5,462,61.692h0l.343-.947A.77.77,0,0,0,462.441,60.5Z" transform="translate(-393.2 -57.676)" fill="#ff0"/>
      <path id="Tracé_25" data-name="Tracé 25" d="M452.937,51.227,450.569,45.3h-1.4L446.8,51.227l-.1.245h1.6l.359-.963h2.449l.359.963h1.6Zm-3.722-2.269h0l.441-1.192c.114-.327.212-.669.212-.669h0c.016,0,.163.555.294.914l.343.947.1.245h-1.486Z" transform="translate(-380.398 -44.957)" fill="#ff0"/>
      <path id="Tracé_26" data-name="Tracé 26" d="M391.782,45.3H391.7v6.171h1.469V45.3Z" transform="translate(-334.378 -44.957)" fill="#ff0"/>
      <path id="Tracé_27" data-name="Tracé 27" d="M486.847,47.324h-.082V48.5H488.4v.016a1.543,1.543,0,0,1-1.6.963,1.667,1.667,0,0,1-1.747-1.763,1.92,1.92,0,0,1,.163-.816,1.536,1.536,0,0,1,1.5-.931,1.678,1.678,0,0,1,1.29.571l1.5-.392c-.033-.065-.082-.131-.114-.2a3.217,3.217,0,0,0-5.665.539,3.335,3.335,0,0,0-.229,1.224,3.134,3.134,0,0,0,3.2,3.2,2.56,2.56,0,0,0,1.682-.62h.016a4.486,4.486,0,0,0-.016.506h1.273V47.324Z" transform="translate(-411.19 -44.288)" fill="#ff0"/>
      <path id="Tracé_28" data-name="Tracé 28" d="M46.569,50.784V46H45.1v6.171h4.392V50.784Z" transform="translate(-44.365 -45.543)" fill="#ff0"/>
      <path id="Tracé_29" data-name="Tracé 29" d="M86.453,472.3h0c-.065.2-.147.457-.229.669v.016c-.033.082-.049.163-.082.229l-.343.947h1.306l-.343-.947C86.616,472.855,86.453,472.3,86.453,472.3Z" transform="translate(-78.42 -402.243)" fill="none"/>
      <path id="Tracé_30" data-name="Tracé 30" d="M43.8,485.676c.506,0,.751-.228.767-.506a.794.794,0,0,1-.686.261,1.358,1.358,0,0,1-1.257-.931l-1.42.375a1,1,0,0,0,.082.2l1.257-.343A1.33,1.33,0,0,0,43.8,485.676Z" transform="translate(-41.102 -412.451)"/>
      <path id="Tracé_31" data-name="Tracé 31" d="M52.871,470.861c.914.343,1.878.849,1.878,1.91a1.51,1.51,0,0,1-.065.473,1.712,1.712,0,0,0,.147-.718c0-1.061-.963-1.584-1.878-1.91-.735-.277-1.355-.424-1.371-.816a.39.39,0,0,0-.082.229C51.516,470.437,52.12,470.584,52.871,470.861Z" transform="translate(-49.72 -400.151)"/>
      <path id="Tracé_32" data-name="Tracé 32" d="M45.271,459.161a2.478,2.478,0,0,1,2.335,1.486l.163-.049a2.464,2.464,0,0,0-2.4-1.7,2.237,2.237,0,0,0-2.269,1.486A2.291,2.291,0,0,1,45.271,459.161Z" transform="translate(-42.692 -391.031)"/>
      <path id="Tracé_33" data-name="Tracé 33" d="M88.629,472.3h0c-.016,0-.114.343-.229.669v-.016C88.482,472.757,88.563,472.48,88.629,472.3Z" transform="translate(-80.596 -402.243)"/>
      <path id="Tracé_34" data-name="Tracé 34" d="M85.2,483.945h1.486L86.6,483.7H85.282Z" transform="translate(-77.918 -411.782)"/>
      <path id="Tracé_35" data-name="Tracé 35" d="M74.769,459.7h-1.4L70.9,465.871h0l2.384-5.926h1.388l2.384,5.926h.18Z" transform="translate(-65.953 -391.7)"/>
      <path id="Tracé_36" data-name="Tracé 36" d="M114.4,461.708c.392.523,1.339,1.861,1.355,1.861h.016v-.343c-.229-.326-.947-1.322-1.273-1.763l-1.306-1.763H111.8v.245h1.306Z" transform="translate(-100.175 -391.7)"/>
      <path id="Tracé_37" data-name="Tracé 37" d="M136.5,459.945h1.388v5.926h.1V459.7H136.5Z" transform="translate(-120.843 -391.7)"/>
      <path id="Tracé_38" data-name="Tracé 38" d="M120.077,476.6c-.016,0,.016.947.016,2.3v1.127h.082v-1.371c0-.865,0-1.551-.016-1.943-.033-.082-.065-.114-.082-.114Z" transform="translate(-107.097 -405.841)"/>
      <path id="Tracé_39" data-name="Tracé 39" d="M160.571,470.861c.914.343,1.878.849,1.878,1.91a1.51,1.51,0,0,1-.065.473,1.712,1.712,0,0,0,.147-.718c0-1.061-.963-1.584-1.878-1.91-.735-.277-1.355-.424-1.371-.816a.39.39,0,0,0-.082.229C159.2,470.437,159.82,470.584,160.571,470.861Z" transform="translate(-139.837 -400.151)"/>
      <path id="Tracé_40" data-name="Tracé 40" d="M151.4,485.676c.506,0,.751-.228.767-.506a.794.794,0,0,1-.686.261,1.358,1.358,0,0,1-1.257-.931l-1.42.375a1,1,0,0,0,.082.2l1.257-.343A1.363,1.363,0,0,0,151.4,485.676Z" transform="translate(-131.135 -412.451)"/>
      <path id="Tracé_41" data-name="Tracé 41" d="M152.871,459.161a2.478,2.478,0,0,1,2.335,1.486l.163-.049a2.464,2.464,0,0,0-2.4-1.7,2.237,2.237,0,0,0-2.269,1.486A2.326,2.326,0,0,1,152.871,459.161Z" transform="translate(-132.724 -391.031)"/>
      <path id="Tracé_42" data-name="Tracé 42" d="M43.751,463.163c-.751-.278-1.371-.424-1.371-.833a.39.39,0,0,1,.082-.229.77.77,0,0,1,.6-.229,1.082,1.082,0,0,1,1.061.8l1.42-.392c-.016-.065-.049-.131-.065-.2a2.478,2.478,0,0,0-2.335-1.486,2.292,2.292,0,0,0-2.171,1.241,1.545,1.545,0,0,0-.131.6c0,1.078.849,1.486,1.6,1.763.882.343,1.6.457,1.6.947v.033c-.016.278-.261.506-.767.506a1.358,1.358,0,0,1-1.257-.931l-1.257.343-.163.049a2.629,2.629,0,0,0,2.612,1.861,2.218,2.218,0,0,0,2.335-1.453,1.509,1.509,0,0,0,.065-.473C45.629,464.012,44.665,463.49,43.751,463.163Z" transform="translate(-40.6 -392.453)" fill="#ff0"/>
      <path id="Tracé_43" data-name="Tracé 43" d="M86.141,476.4l-.441,1.192h0l.343-.947A1.531,1.531,0,0,0,86.141,476.4Z" transform="translate(-78.337 -405.673)" fill="#ff0"/>
      <path id="Tracé_44" data-name="Tracé 44" d="M76.553,467.127,74.169,461.2h-1.4L70.4,467.127l-.1.245h1.6l.359-.963h2.449l.359.963h1.6Zm-3.739-2.253h0l.441-1.192c.114-.327.212-.669.212-.669h0c.016,0,.163.555.294.914l.343.947.1.245H72.716Z" transform="translate(-65.451 -392.955)" fill="#ff0"/>
      <path id="Tracé_45" data-name="Tracé 45" d="M115.331,461.116h-.082v1.4c0,.735,0,1.453.016,1.861v.343h-.016c-.016,0-.947-1.339-1.355-1.861l-1.306-1.763H111.2v6.188h1.486v-1.371c0-1.355-.016-2.3-.016-2.3h.016a1.009,1.009,0,0,1,.082.1c.212.294.865,1.208,1.322,1.845l1.257,1.714h1.388V461.1h-1.4Z" transform="translate(-99.673 -392.871)" fill="#ff0"/>
      <path id="Tracé_46" data-name="Tracé 46" d="M151.451,463.163c-.751-.278-1.371-.424-1.371-.833a.39.39,0,0,1,.082-.229.77.77,0,0,1,.6-.229,1.082,1.082,0,0,1,1.061.8l1.42-.392c-.016-.065-.049-.131-.065-.2a2.478,2.478,0,0,0-2.335-1.486,2.292,2.292,0,0,0-2.171,1.241,1.545,1.545,0,0,0-.131.6c0,1.078.849,1.486,1.6,1.763.882.343,1.6.457,1.6.947v.033c-.016.278-.261.506-.767.506a1.358,1.358,0,0,1-1.257-.931l-1.257.343-.163.049a2.629,2.629,0,0,0,2.612,1.861,2.218,2.218,0,0,0,2.335-1.453,1.509,1.509,0,0,0,.065-.473C153.329,464.012,152.365,463.49,151.451,463.163Z" transform="translate(-130.716 -392.453)" fill="#ff0"/>
      <path id="Tracé_47" data-name="Tracé 47" d="M473.965,474.149a1.541,1.541,0,0,0,1.5-.947,1.993,1.993,0,0,0,.065-.555,1.608,1.608,0,0,0-1.665-1.747,1.572,1.572,0,0,0-1.5.947,2.071,2.071,0,0,0-.065.555A1.617,1.617,0,0,0,473.965,474.149Z" transform="translate(-401.818 -401.071)" fill="none"/>
      <path id="Tracé_48" data-name="Tracé 48" d="M473.547,479.347a1.578,1.578,0,0,0,1.6-1.192,1.541,1.541,0,0,1-1.5.947A1.613,1.613,0,0,1,472,477.355a2.876,2.876,0,0,1,.065-.555,2.054,2.054,0,0,0-.163.8A1.6,1.6,0,0,0,473.547,479.347Z" transform="translate(-401.482 -406.008)"/>
      <path id="Tracé_49" data-name="Tracé 49" d="M466.771,460.745a3.154,3.154,0,0,1,3.2,3.2,3.053,3.053,0,0,1-.147.963,3.311,3.311,0,0,0,.229-1.208,3.2,3.2,0,0,0-6.253-.963A3.118,3.118,0,0,1,466.771,460.745Z" transform="translate(-394.706 -392.369)"/>
      <path id="Tracé_50" data-name="Tracé 50" d="M465.6,462a3.134,3.134,0,0,0-2.971,1.992,3.333,3.333,0,0,0-.229,1.224,3.208,3.208,0,1,0,6.416,0A3.181,3.181,0,0,0,465.6,462Zm-1.5,2.4a1.541,1.541,0,0,1,1.5-.947,1.608,1.608,0,0,1,1.665,1.747,2.07,2.07,0,0,1-.065.555,1.578,1.578,0,0,1-1.6,1.192,1.613,1.613,0,0,1-1.649-1.747A1.841,1.841,0,0,1,464.1,464.4Z" transform="translate(-393.535 -393.624)" fill="#ff0"/>
      <path id="Tracé_51" data-name="Tracé 51" d="M427.6,463.308c.392.522,1.339,1.861,1.355,1.861h.016v-.343c-.229-.327-.947-1.322-1.273-1.763l-1.306-1.763H425v.245h1.306Z" transform="translate(-362.241 -393.039)"/>
      <path id="Tracé_52" data-name="Tracé 52" d="M433.377,478.1c-.016,0,.016.947.016,2.3v1.127h.082v-1.371c0-.865,0-1.551-.016-1.959a.987.987,0,0,0-.082-.1Z" transform="translate(-369.246 -407.096)"/>
      <path id="Tracé_53" data-name="Tracé 53" d="M451.186,461.3H449.7v.245h1.4v5.927h.082Z" transform="translate(-382.908 -393.039)"/>
      <path id="Tracé_54" data-name="Tracé 54" d="M428.531,462.633h-.082v1.4c0,.735,0,1.453.016,1.861v.343h-.016c-.016,0-.947-1.339-1.355-1.861l-1.306-1.763H424.4v6.171h1.486v-1.371c0-1.355-.016-2.3-.016-2.3h.016a1.007,1.007,0,0,1,.082.1c.212.294.865,1.208,1.322,1.845l1.257,1.714h1.388V462.6h-1.4Z" transform="translate(-361.739 -394.126)" fill="#ff0"/>
      <path id="Tracé_55" data-name="Tracé 55" d="M512.455,461.3h-1.388l-1.159,1.861a8.579,8.579,0,0,0-.523.9h-.016c-.016,0-.082-.163-.522-.9l-1.159-1.861H506.3v.245h1.306l1.159,1.861a8.577,8.577,0,0,1,.522.9h.016c.016,0,.082-.163.522-.9l1.159-1.861h1.388v5.927h.082Z" transform="translate(-430.267 -393.039)"/>
      <path id="Tracé_56" data-name="Tracé 56" d="M514.387,477.9c-.016,0,.049.718.049,2.188v1.257h.082v-1.5c0-.849-.016-1.437-.033-1.8-.049-.082-.1-.147-.1-.147Z" transform="translate(-437.031 -406.929)"/>
      <path id="Tracé_57" data-name="Tracé 57" d="M510.467,462.8l-1.159,1.861a8.573,8.573,0,0,0-.523.9h-.016c-.016,0-.082-.163-.522-.9l-1.159-1.861H505.7v6.171h1.453v-1.5c0-1.469-.049-2.188-.049-2.188h.016a.923.923,0,0,0,.1.147c.147.245.424.718.457.784l.718,1.241h.767l.718-1.241c.049-.082.539-.931.555-.931h.016c.016,0-.049.718-.049,2.188v1.5h1.453V462.8Z" transform="translate(-429.765 -394.294)" fill="#ff0"/>
    </g>
  </g>
</svg>
