<?xml version="1.0" encoding="utf-8"?>
<!-- Generator: Adobe Illustrator 24.1.0, SVG Export Plug-In . SVG Version: 6.00 Build 0)  -->
<svg version="1.1" id="Calque_1" xmlns="http://www.w3.org/2000/svg" xmlns:xlink="http://www.w3.org/1999/xlink" x="0px" y="0px"
	 viewBox="0 0 529 478" style="enable-background:new 0 0 529 478;" xml:space="preserve">
<style type="text/css">
	.st0{fill:none;}
	.st1{fill:#FFFF00;}
	.st2{fill:#FFFF00;stroke:#000000;stroke-miterlimit:10;}
</style>
<g>
	<g>
		<path class="st0" d="M432.4,23L432.4,23c-0.4,1.2-0.9,2.8-1.4,4.1l0,0.1c-0.2,0.5-0.3,1-0.5,1.4l-2.1,5.8h8l-2.1-5.8
			C433.4,26.4,432.4,23,432.4,23z"/>
		<path d="M34.2,25.5h1.1c1.1-1.4,2.1-3.2,2.4-4.5C36.9,22.8,35.5,24.7,34.2,25.5z"/>
		<path d="M38.1,20.1c0,0.1-0.1,0.2-0.1,0.2l0.6-0.2L38.1,20.1z"/>
		<path d="M39.4,10.5c-2.2,0-3.9,1.6-4.2,3.6c0.7-1.2,2.1-2.1,3.7-2.1c2.3,0,4.2,1.9,4.2,4.8c0,0.6-0.1,1.3-0.3,2
			c0.5-1.2,0.8-2.4,0.8-3.5C43.7,12.4,41.8,10.5,39.4,10.5z"/>
		<path d="M395.9,22c-2.8,4.5-3.2,5.5-3.2,5.5h-0.1c-0.1,0-0.5-1-3.2-5.5l-7.1-11.4h-8.5V12h8l7.1,11.4c2.8,4.5,3.2,5.5,3.2,5.5h0.1
			c0.1,0,0.5-1,3.2-5.5l7.1-11.4h8.5v36.3h0.5V10.5H403L395.9,22z"/>
		<path d="M381.9,27.2c-0.1,0,0.3,4.4,0.3,13.4v7.7h0.5v-9.2c0-5.2-0.1-8.8-0.2-11C382.2,27.6,381.9,27.2,381.9,27.2L381.9,27.2z"/>
		<polygon points="502.1,26.7 516.5,26.7 516.5,33.1 517.1,33.1 517.1,25.2 502.6,25.2 502.6,20.5 502.1,20.5 		"/>
		<polygon points="521.4,39.8 502.6,39.8 502.6,34.6 502.1,34.6 502.1,41.3 520.8,41.3 520.8,48.3 521.4,48.3 		"/>
		<polygon points="520.5,19 521.1,19 521.1,10.5 493.6,10.5 493.6,12 520.5,12 		"/>
		<polygon points="437.2,10.5 428.6,10.5 413.5,48.3 413.5,48.3 428.1,12 436.6,12 451.1,48.3 452.3,48.3 		"/>
		<polygon points="427.8,35.9 436.9,35.9 436.4,34.4 428.3,34.4 		"/>
		<path d="M432.4,23L432.4,23c-0.1,0-0.7,2.2-1.4,4.1l0-0.1C431.5,25.9,432,24.2,432.4,23z"/>
		<polygon points="358.5,12 367,12 367,48.3 367.5,48.3 367.5,10.5 358.5,10.5 		"/>
		<polygon points="470.2,28.4 487.4,28.4 487.4,48.3 487.9,48.3 487.9,26.9 470.2,26.9 		"/>
		<path d="M469.9,41.7c6,0,8.7-3.1,9.8-5.9v-0.1h-0.2c-1.4,2.3-4.1,4.5-9.1,4.5c-6.2,0-10.7-4.2-10.7-10.8c0-1.2,0.2-2.4,0.4-3.4
			c-0.6,1.5-1,3.1-1,5C459.2,37.6,463.7,41.7,469.9,41.7z"/>
		<path d="M469.3,11.3c6.9,0,12.9,3.4,16.5,8.9l1.2-0.3c-3.4-6.2-9.8-10-17.2-10c-8.8,0-16.3,5.5-18.7,13.7
			C454,16.1,461,11.3,469.3,11.3z"/>
		<polygon points="20.9,11.2 11.8,11.2 11.8,12.7 20.4,12.7 20.4,42 38.2,42 38.2,48.9 38.8,48.9 38.8,40.5 20.9,40.5 		"/>
		<path class="st1" d="M37.8,20.4c0,0.2,0,0.4-0.1,0.7c0.1-0.2,0.2-0.5,0.3-0.7L37.8,20.4z"/>
		<path class="st2" d="M38.9,12c-1.6,0-2.9,0.8-3.7,2.1c-0.4,0.6-0.6,1.3-0.6,2.1c0,2.3,1.7,3.6,3.1,3.8l0.3,0l0.5,0.1L38,20.3
			c-0.1,0.2-0.2,0.5-0.3,0.7c-0.3,1.3-1.3,3.1-2.4,4.5c-0.5,0.6-1.1,1.2-1.6,1.5H37c2.8-2.2,5.1-5.3,5.9-8.3c0.2-0.7,0.3-1.3,0.3-2
			C43.1,13.9,41.2,12,38.9,12z"/>
		<path class="st2" d="M402.4,12l-7.1,11.4c-2.8,4.5-3.2,5.5-3.2,5.5h-0.1c-0.1,0-0.5-1-3.2-5.5L381.8,12h-8h-0.5v37.8h8.9v-1.5
			v-7.7c0-9-0.3-13.4-0.3-13.4h0.1c0,0,0.2,0.4,0.6,0.9c0.9,1.5,2.6,4.4,2.8,4.8l4.4,7.6h4.7l4.4-7.6c0.3-0.5,3.3-5.7,3.4-5.7h0.1
			c0.1,0-0.3,4.4-0.3,13.4v9.2h8.9v-1.5V12H402.4z"/>
		<polygon class="st2" points="502.1,41.3 502.1,34.6 502.6,34.6 516.5,34.6 516.5,33.1 516.5,26.7 502.1,26.7 502.1,20.5 
			502.6,20.5 520.5,20.5 520.5,19 520.5,12 493.6,12 493,12 493,49.8 520.8,49.8 520.8,48.3 520.8,41.3 		"/>
		<path class="st1" d="M431,27.2l-2.7,7.3h0l2.1-5.8C430.6,28.2,430.8,27.7,431,27.2z"/>
		<path class="st2" d="M451.1,48.3L436.6,12h-8.6l-14.5,36.3l-0.6,1.5h9.8l2.2-5.9h15l2.2,5.9h9.8L451.1,48.3z M428.3,34.4
			L428.3,34.4l2.7-7.3c0.7-2,1.3-4.1,1.3-4.1h0h0c0.1,0,1,3.4,1.8,5.6l2.1,5.8l0.6,1.5h-9.1L428.3,34.4z"/>
		<polygon class="st2" points="358.5,12 357.9,12 357.9,49.8 367,49.8 367,48.3 367,12 		"/>
		<path class="st2" d="M470.2,28.4h-0.5v7.3h9.8h0.2v0.1c-1.1,2.8-3.7,5.9-9.8,5.9c-6.2,0-10.7-4.2-10.7-10.8c0-1.8,0.3-3.5,1-5
			c1.5-3.5,4.7-5.7,9.2-5.7c3,0,6.2,1.3,7.9,3.5l9.2-2.4c-0.2-0.4-0.5-0.8-0.7-1.2c-3.5-5.5-9.6-8.9-16.5-8.9
			c-8.3,0-15.3,4.8-18.2,12.2c-0.9,2.3-1.4,4.8-1.4,7.5c0,11.4,8.7,19.6,19.6,19.6c3.7,0,8-1.5,10.3-3.8h0.1c0,0.1-0.1,0.6-0.1,3.1
			h7.8v-1.5V28.4H470.2z"/>
		<polygon class="st2" points="20.4,42 20.4,12.7 11.8,12.7 11.3,12.7 11.3,50.5 38.2,50.5 38.2,48.9 38.2,42 		"/>
		<path class="st0" d="M56,438.9L56,438.9c-0.4,1.2-0.9,2.8-1.4,4.1l0,0.1c-0.2,0.5-0.3,1-0.5,1.4l-2.1,5.8h8l-2.1-5.8
			C57.1,442.3,56.1,438.9,56,438.9z"/>
		<path d="M23.3,458.4c3.1,0,4.6-1.4,4.7-3.1c-0.7,1-2.1,1.6-4.2,1.6c-4,0-6.7-2.9-7.7-5.7l-8.7,2.3c0.1,0.4,0.3,0.8,0.5,1.2
			l7.7-2.1C16.6,455.6,19.3,458.4,23.3,458.4z"/>
		<path d="M26.2,442.9c5.6,2.1,11.5,5.2,11.5,11.7c0,1-0.1,2-0.4,2.9c0.6-1.3,0.9-2.8,0.9-4.4c0-6.5-5.9-9.7-11.5-11.7
			c-4.5-1.7-8.3-2.6-8.4-5c-0.3,0.4-0.5,0.9-0.5,1.4C17.8,440.3,21.6,441.3,26.2,442.9z"/>
		<path d="M22.6,427.2c6.7,0,12.1,3.8,14.3,9.1l1-0.3c-1.8-5.9-7.5-10.4-14.7-10.4c-7.2,0-12.6,4.1-13.9,9.1
			C11.1,430.5,16.2,427.2,22.6,427.2z"/>
		<path d="M56,438.9L56,438.9c-0.1,0-0.7,2.1-1.4,4.1l0-0.1C55.1,441.8,55.7,440.1,56,438.9z"/>
		<polygon points="51.4,451.8 60.6,451.8 60,450.3 52,450.3 		"/>
		<polygon points="60.8,426.4 52.2,426.4 37.1,464.2 37.2,464.2 51.7,427.9 60.3,427.9 74.8,464.2 75.9,464.2 		"/>
		<path d="M94,438.7c2.4,3.2,8.2,11.4,8.3,11.4h0.1c0,0,0-0.8,0-2.1c-1.4-2-5.8-8.1-7.8-10.8l-8-10.8h-8.5v1.5h8L94,438.7z"/>
		<polygon points="102.8,427.9 111.3,427.9 111.3,464.2 111.8,464.2 111.8,426.4 102.8,426.4 		"/>
		<path d="M86.4,443.3c-0.1,0,0.1,5.8,0.1,14.1v6.9H87v-8.4c0-5.3,0-9.5-0.1-11.9C86.6,443.5,86.5,443.3,86.4,443.3L86.4,443.3z"/>
		<path d="M133.9,442.9c5.6,2.1,11.5,5.2,11.5,11.7c0,1-0.1,2-0.4,2.9c0.6-1.3,0.9-2.8,0.9-4.4c0-6.5-5.9-9.7-11.5-11.7
			c-4.5-1.7-8.3-2.6-8.4-5c-0.3,0.4-0.5,0.9-0.5,1.4C125.5,440.3,129.3,441.3,133.9,442.9z"/>
		<path d="M131,458.4c3.1,0,4.6-1.4,4.7-3.1c-0.7,1-2.1,1.6-4.2,1.6c-4,0-6.7-2.9-7.7-5.7l-8.7,2.3c0.1,0.4,0.3,0.8,0.5,1.2l7.7-2.1
			C124.3,455.6,127,458.4,131,458.4z"/>
		<path d="M130.3,427.2c6.7,0,12.1,3.8,14.3,9.1l1-0.3c-1.8-5.9-7.5-10.4-14.7-10.4c-7.2,0-12.6,4.1-13.9,9.1
			C118.8,430.5,123.9,427.2,130.3,427.2z"/>
		<path class="st2" d="M26.2,442.9c-4.6-1.7-8.4-2.6-8.4-5.1c0-0.5,0.2-1,0.5-1.4c0.7-0.8,1.9-1.4,3.7-1.4c2.7,0,5.6,1.6,6.5,4.9
			l8.7-2.4c-0.1-0.4-0.3-0.8-0.4-1.2c-2.2-5.3-7.6-9.1-14.3-9.1c-6.4,0-11.5,3.3-13.3,7.6c-0.5,1.2-0.8,2.4-0.8,3.7
			c0,6.6,5.2,9.1,9.8,10.8c5.4,2.1,9.8,2.8,9.8,5.8c0,0.1,0,0.1,0,0.2c-0.1,1.7-1.6,3.1-4.7,3.1c-4,0-6.7-2.9-7.7-5.7L8,454.8L7,455
			c2.5,7.1,8.1,11.4,16,11.4c7.5,0,12.9-3.6,14.3-8.9c0.3-0.9,0.4-1.9,0.4-2.9C37.7,448.2,31.8,445,26.2,442.9z"/>
		<path class="st1" d="M54.6,443.1l-2.7,7.3h0l2.1-5.8C54.3,444.1,54.5,443.6,54.6,443.1z"/>
		<path class="st2" d="M74.8,464.2l-14.5-36.3h-8.6l-14.5,36.3l-0.6,1.5h9.8l2.2-5.9h15l2.2,5.9h9.8L74.8,464.2z M52,450.3L52,450.3
			l2.7-7.3c0.7-2,1.3-4.1,1.3-4.1h0h0c0.1,0,1,3.4,1.8,5.6l2.1,5.8l0.6,1.5h-9.1L52,450.3z"/>
		<path class="st2" d="M102.8,427.9h-0.5v8.6c0,4.5,0,8.9,0.1,11.4c0,1.3,0,2.1,0,2.1h-0.1c-0.1,0-5.8-8.2-8.3-11.4l-8-10.8h-8h-0.5
			v37.8h9.1v-1.5v-6.9c0-8.3-0.1-14.1-0.1-14.1h0.1c0,0,0.2,0.2,0.5,0.6c1.3,1.8,5.3,7.4,8.1,11.3l7.7,10.5h8.5v-1.5v-36.3H102.8z"
			/>
		<path class="st2" d="M133.9,442.9c-4.6-1.7-8.4-2.6-8.4-5.1c0-0.5,0.2-1,0.5-1.4c0.7-0.8,1.9-1.4,3.7-1.4c2.7,0,5.6,1.6,6.5,4.9
			l8.7-2.4c-0.1-0.4-0.3-0.8-0.4-1.2c-2.2-5.3-7.6-9.1-14.3-9.1c-6.4,0-11.5,3.3-13.3,7.6c-0.5,1.2-0.8,2.4-0.8,3.7
			c0,6.6,5.2,9.1,9.8,10.8c5.4,2.1,9.8,2.8,9.8,5.8c0,0.1,0,0.1,0,0.2c-0.1,1.7-1.6,3.1-4.7,3.1c-4,0-6.7-2.9-7.7-5.7l-7.7,2.1
			l-1,0.3c2.5,7.1,8.1,11.4,16,11.4c7.5,0,12.9-3.6,14.3-8.9c0.3-0.9,0.4-1.9,0.4-2.9C145.4,448.2,139.5,445,133.9,442.9z"/>
		<path class="st0" d="M448.7,457.5c4.4,0,7.7-2.2,9.2-5.8c0.3-1,0.4-2.2,0.4-3.4c0-6.4-4-10.7-10.2-10.7c-4.3,0-7.6,2.2-9.2,5.8
			c-0.3,1.1-0.4,2.2-0.4,3.4C438.6,453.2,442.6,457.5,448.7,457.5z"/>
		<path d="M448.2,459c5,0,8.6-2.9,9.8-7.3c-1.5,3.6-4.8,5.8-9.2,5.8c-6.1,0-10.1-4.4-10.1-10.7c0-1.2,0.2-2.4,0.4-3.4
			c-0.6,1.4-1,3.1-1,4.9C438.1,454.7,442.1,459,448.2,459z"/>
		<path d="M448.2,428.7c10.8,0,19.6,8.3,19.6,19.6c0,2.1-0.3,4.1-0.9,5.9c0.9-2.3,1.4-4.8,1.4-7.4c0-11.4-8.8-19.6-19.6-19.6
			c-8.8,0-16.3,5.5-18.7,13.7C432.9,433.5,439.9,428.7,448.2,428.7z"/>
		<path class="st2" d="M448.2,428.7c-8.3,0-15.3,4.8-18.2,12.2c-0.9,2.3-1.4,4.8-1.4,7.5c0,11.4,8.7,19.6,19.6,19.6
			c8.9,0,16.3-5.5,18.8-13.7c0.6-1.9,0.9-3.8,0.9-5.9C467.9,437,459.1,428.7,448.2,428.7z M439,443.4c1.5-3.6,4.8-5.8,9.2-5.8
			c6.2,0,10.2,4.3,10.2,10.7c0,1.2-0.1,2.3-0.4,3.4c-1.2,4.4-4.8,7.3-9.8,7.3c-6.1,0-10.1-4.4-10.1-10.7
			C438.1,446.5,438.4,444.9,439,443.4z"/>
		<path d="M407.2,440.3c2.4,3.2,8.2,11.4,8.3,11.4h0.1c0,0,0-0.8,0-2.1c-1.4-2-5.8-8.1-7.8-10.8l-8-10.8h-8.5v1.5h8L407.2,440.3z"/>
		<path d="M399.6,444.8c-0.1,0,0.1,5.8,0.1,14.1v6.9h0.5v-8.4c0-5.3,0-9.5-0.1-12C399.9,445,399.7,444.8,399.6,444.8L399.6,444.8z"
			/>
		<polygon points="425,428 416,428 416,429.5 424.5,429.5 424.5,465.7 425,465.7 		"/>
		<path class="st2" d="M416,429.5h-0.5v8.6c0,4.5,0,8.9,0.1,11.4c0,1.3,0,2.1,0,2.1h-0.1c-0.1,0-5.8-8.2-8.3-11.4l-8-10.8h-8h-0.5
			v37.8h9.1v-1.5v-6.9c0-8.3-0.1-14.1-0.1-14.1h0.1c0,0,0.2,0.2,0.5,0.6c1.3,1.8,5.3,7.4,8.1,11.3l7.7,10.5h8.5v-1.5v-36.3H416z"/>
		<path d="M510.3,428h-8.5l-7.1,11.4c-2.8,4.5-3.2,5.5-3.2,5.5h-0.1c-0.1,0-0.5-1-3.2-5.5l-7.1-11.4h-8.5v1.5h8l7.1,11.4
			c2.8,4.5,3.2,5.5,3.2,5.5h0.1c0.1,0,0.5-1,3.2-5.5l7.1-11.4h8.5v36.3h0.5V428z"/>
		<path d="M480.6,444.6c-0.1,0,0.3,4.4,0.3,13.4v7.7h0.5v-9.2c0-5.2-0.1-8.8-0.2-11C480.9,445,480.7,444.6,480.6,444.6L480.6,444.6z
			"/>
		<path class="st2" d="M501.2,429.5l-7.1,11.4c-2.8,4.5-3.2,5.5-3.2,5.5h-0.1c-0.1,0-0.5-1-3.2-5.5l-7.1-11.4h-8H472v37.8h8.9v-1.5
			V458c0-9-0.3-13.4-0.3-13.4h0.1c0,0,0.2,0.4,0.6,0.9c0.9,1.5,2.6,4.4,2.8,4.8l4.4,7.6h4.7l4.4-7.6c0.3-0.5,3.3-5.7,3.4-5.7h0.1
			c0.1,0-0.3,4.4-0.3,13.4v9.2h8.9v-1.5v-36.3H501.2z"/>
	</g>
</g>
</svg>
